<svg width="247" height="64" viewBox="0 0 247 64" fill="none" xmlns="http://www.w3.org/2000/svg">
<path d="M24.1466 0L15.5114 19.9889L6.99611 0H0L12.0733 27.9845H18.4697L30.583 0H24.1466Z" fill="#333333"/>
<path d="M52.8909 27.9845H59.6872L47.1741 0H40.7777L28.3046 27.9845H34.9409L37.4195 21.9878H50.4123L52.8909 27.9845ZM39.4984 17.0705L43.9359 6.35647L48.3734 17.0705H39.4984Z" fill="#333333"/>
<path d="M86.2521 27.9845L75.8179 13.5125L85.5725 0H78.5764L72.2599 9.07496L65.8234 0H58.4675L68.3021 13.7524L57.9478 27.9845H65.3837L72.02 18.2699L78.7762 27.9845H86.2521Z" fill="#333333"/>
<path d="M114.401 27.9845L103.966 13.5125L113.721 0H106.725L100.408 9.07496L93.9719 0H86.616L96.4505 13.7524L86.0962 27.9845H93.5321L100.168 18.2699L106.925 27.9845H114.401Z" fill="#333333"/>
<path d="M17.5688 64C26.3639 64 32.8803 57.8834 32.8803 49.528C32.8803 41.1727 26.3639 35.0561 17.5688 35.0561C8.73369 35.0561 2.25729 41.2127 2.25729 49.528C2.25729 57.8434 8.73369 64 17.5688 64ZM17.5688 58.4831C12.5716 58.4831 8.81365 54.8451 8.81365 49.528C8.81365 44.211 12.5716 40.573 17.5688 40.573C22.566 40.573 26.3239 44.211 26.3239 49.528C26.3239 54.8451 22.566 58.4831 17.5688 58.4831Z" fill="#333333"/>
<path d="M57.2792 35.5358L48.644 55.5247L40.1287 35.5358H33.1326L45.2059 63.5203H51.6024L63.7156 35.5358H57.2792Z" fill="#333333"/>
<path d="M72.4886 58.3232V51.8467H85.4814V46.8095H72.4886V40.7329H87.2004V35.5358H66.0522V63.5203H87.7201V58.3232H72.4886Z" fill="#333333"/>
<path d="M117.659 63.5203L111.383 54.5253C115.021 52.9661 117.14 49.8878 117.14 45.6902C117.14 39.4137 112.462 35.5358 104.986 35.5358H92.8732V63.5203H99.3496V55.7246H105.306L110.703 63.5203H117.659ZM110.583 45.6902C110.583 48.7285 108.584 50.5675 104.627 50.5675H99.3496V40.8129H104.627C108.584 40.8129 110.583 42.6119 110.583 45.6902Z" fill="#333333"/>
<path d="M143.419 40.7329V35.5358H122.271V63.5203H128.747V53.3259H141.7V48.1288H128.747V40.7329H143.419Z" fill="#333333"/>
<path d="M147.804 63.5203H168.312V58.2432H154.28V35.5358H147.804V63.5203Z" fill="#333333"/>
<path d="M185.015 64C193.81 64 200.326 57.8834 200.326 49.528C200.326 41.1727 193.81 35.0561 185.015 35.0561C176.18 35.0561 169.703 41.2127 169.703 49.528C169.703 57.8434 176.18 64 185.015 64ZM185.015 58.4831C180.018 58.4831 176.26 54.8451 176.26 49.528C176.26 44.211 180.018 40.573 185.015 40.573C190.012 40.573 193.77 44.211 193.77 49.528C193.77 54.8451 190.012 58.4831 185.015 58.4831Z" fill="#333333"/>
<path d="M240.357 35.5358L233.84 55.3648L227.444 35.5358H221.447L214.851 55.2049L208.534 35.5358H201.818L211.013 63.5203H217.929L224.286 44.5708L230.442 63.5203H237.398L246.553 35.5358H240.357Z" fill="#333333"/>
</svg>
